<?xml version="1.0" encoding="UTF-8"?>
<svg width="118px" height="61px" viewBox="0 0 118 61" version="1.1" xmlns="http://www.w3.org/2000/svg" xmlns:xlink="http://www.w3.org/1999/xlink">
    <!-- Generator: Sketch 53.2 (72643) - https://sketchapp.com -->
    <title>pads4-logo-diap</title>
    <desc>Created with Sketch.</desc>
    <g id="Symbols" stroke="none" stroke-width="1" fill="none" fill-rule="evenodd">
        <g id="navigation-/-main-/-diap" transform="translate(-100.000000, -53.000000)" fill="#FFFFFF">
            <g id="pads4-logo-diap" transform="translate(100.000000, 53.000000)">
                <g id="Group-3" transform="translate(92.261137, 0.163455)">
                    <path d="M13.5,0 L0.1,0 L0.1,7.2 L13.5,7.2 C16.3,7.2 18.6,9.5 18.6,12.3 L18.6,52.7 L0.1,52.7 L0.1,59.9 L25.7,59.9 L25.7,12.3 C25.7,5.5 20.2,0 13.5,0" id="Fill-1"></path>
                </g>
                <g id="Group-6" transform="translate(0.000000, 0.163455)">
                    <path d="M25.6,0 L0,0 L0,47.5 C0,54.3 5.5,59.8 12.2,59.8 L25.6,59.8 L25.6,52.6 L12.2,52.6 C9.4,52.6 7.1,50.3 7.1,47.5 L7.1,7.2 L25.6,7.2 L25.6,0 Z" id="Fill-4"></path>
                </g>
                <path d="M28,27.4 C28,28.8 26.8,29.3 25.3,29.3 L23,29.3 L23,24 L25.4,24 C26.8,24 28.1,24.6 28.1,25.9 L28.1,27.4 L28,27.4 Z M32.8,25.1 C32.8,22.6 30.9,20.1 25.3,20.1 L19,20.1 C18.5,20.1 18.1,20.5 18.1,21 L18.1,36.2 C18.1,38.4 19.9,40.2 22.1,40.2 C22.6,40.2 23,39.8 23,39.3 L23,33.4 L25.4,33.4 C30.9,33.4 32.9,30.9 32.9,28.4 L32.9,25.1 L32.8,25.1 Z" id="Fill-7"></path>
                <path d="M39,32.6 L39.4,31 C39.9,29.3 40.3,25.3 40.4,24.8 C40.4,25.1 40.8,29.2 41.3,31 L41.7,32.6 L39,32.6 Z M43.2,20.9 C43,20.3 42.7,20 42.1,20 L39,20 C38.4,20 38.1,20.3 37.9,20.9 L32.6,39.2 C32.4,39.8 32.6,40.1 33.2,40.1 L36.2,40.1 C36.8,40.1 37.1,39.8 37.2,39.2 L38,36.4 L42.9,36.4 L43.7,39.2 C43.8,39.8 44.1,40.1 44.7,40.1 L48,40.1 C48.6,40.1 48.8,39.8 48.6,39.2 L43.2,20.9 Z" id="Fill-9"></path>
                <path d="M60.8,34.2 C60.8,35.6 59.6,36.1 58.1,36.1 L55.5,36.1 L55.5,24 L58.1,24 C59.5,24 60.8,24.6 60.8,25.9 L60.8,34.2 Z M58.1,20.1 L51.5,20.1 C50.9,20.1 50.6,20.4 50.6,21 L50.6,39.3 C50.6,39.9 50.8,40.2 51.3,40.2 L58.1,40.2 C63.6,40.2 65.6,37.7 65.6,35.2 L65.6,25.2 C65.6,22.6 63.6,20.1 58.1,20.1 L58.1,20.1 Z" id="Fill-11"></path>
                <path d="M79.3,28.8 L74.4,27.1 C74.1,27 73.5,26.6 73.5,25.8 L73.5,25.5 C73.5,24.1 74.5,23.6 75.8,23.6 C77.2,23.6 78.1,24.1 78.1,25.5 L78.1,26 C78.1,26.6 78.3,26.9 78.9,26.9 L82,26.9 C82.6,26.9 82.9,26.6 82.9,26 L82.9,24.9 C82.9,22.4 81.3,19.9 75.8,19.9 C70.4,19.9 68.8,22.4 68.8,24.9 L68.8,26.6 C68.8,28.3 70,30 71.5,30.5 L75.7,32.1 C76.8,32.5 78.2,33 78.2,34.1 L78.2,34.7 C78.2,36.1 77,36.6 75.6,36.6 C74.2,36.6 73,36.1 73,34.7 L73,33.4 C73,32.8 72.8,32.5 72.2,32.5 L69.1,32.5 C68.5,32.5 68.2,32.8 68.2,33.4 L68.2,35.4 C68.2,37.9 70.1,40.4 75.6,40.4 C81.1,40.4 82.9,37.9 82.9,35.4 L82.9,33.3 C83,31 81.5,29.5 79.3,28.8" id="Fill-13"></path>
                <path d="M95.9,19.9 L95.9,19.9 C95.4,19.9 95,20.3 95,20.8 L95,31 L90.4,31 L93.4,20.8 C93.5,20.3 93.4,19.9 92.8,19.9 L89.6,19.9 C89,19.9 88.7,20.2 88.5,20.8 L85.5,31.3 C85.5,31.4 85.4,31.6 85.4,31.8 L85.4,34.1 C85.4,34.6 85.8,35 86.3,35 L95,35 L95,36 C95,37 95,37.7 95,38.3 L95,39.2 C95,39.7 95.4,40.1 95.9,40.1 L97.2,40.1 L97.2,40.1 C97.7,40.1 98.3,40.1 99,40.1 C99.5,40.1 99.9,39.7 99.9,39.2 L99.9,36 L99.9,35 L99.9,23.9 C99.9,21.7 98.1,19.9 95.9,19.9" id="Fill-15"></path>
            </g>
        </g>
    </g>
</svg>